<svg xmlns="http://www.w3.org/2000/svg" xmlns:xlink="http://www.w3.org/1999/xlink" width="500" zoomAndPan="magnify" viewBox="0 0 375 374.999991" height="500" preserveAspectRatio="xMidYMid meet" version="1.2"><defs><clipPath id="e1af139ccf"><path d="M 60.964844 169 L 206 169 L 206 208.882812 L 60.964844 208.882812 Z M 60.964844 169 "/></clipPath><clipPath id="486408b1ff"><path d="M 145 62 L 313.363281 62 L 313.363281 315.871094 L 145 315.871094 Z M 145 62 "/></clipPath><clipPath id="9e5ad8ec9d"><path d="M 60.964844 185.027344 L 187 185.027344 L 187 192.558594 L 60.964844 192.558594 Z M 60.964844 185.027344 "/></clipPath></defs><g id="8f914a74c6"><g clip-rule="nonzero" clip-path="url(#e1af139ccf)"><path style=" stroke:none;fill-rule:nonzero;fill:#02635a;fill-opacity:1;" d="M 188.203125 177.019531 C 192.9375 177.542969 196.855469 180.824219 198.238281 185.246094 C 198.59375 186.371094 198.777344 187.558594 198.777344 188.792969 C 198.777344 188.851562 198.769531 188.910156 198.769531 188.96875 C 198.769531 189.035156 198.777344 189.085938 198.777344 189.152344 C 198.777344 190.382812 198.59375 191.574219 198.238281 192.691406 C 196.855469 197.117188 192.9375 200.402344 188.203125 200.921875 L 188.203125 201.035156 L 60.984375 201.035156 C 61.203125 203.398438 61.476562 205.742188 61.820312 208.0625 L 186.855469 208.0625 L 186.855469 208 C 186.863281 208 186.878906 208.003906 186.894531 208.003906 C 192.789062 208.003906 198.050781 205.28125 201.511719 201.035156 C 203.449219 198.667969 204.808594 195.8125 205.40625 192.691406 C 205.625 191.546875 205.75 190.363281 205.75 189.152344 C 205.75 189.085938 205.742188 189.035156 205.742188 188.96875 C 205.742188 188.910156 205.75 188.851562 205.75 188.792969 C 205.75 187.582031 205.625 186.398438 205.40625 185.246094 C 204.808594 182.128906 203.449219 179.277344 201.511719 176.90625 C 198.050781 172.65625 192.789062 169.941406 186.894531 169.941406 C 186.878906 169.941406 186.863281 169.941406 186.855469 169.941406 L 186.855469 169.875 L 61.820312 169.875 C 61.476562 172.195312 61.203125 174.546875 60.984375 176.90625 L 188.203125 176.90625 L 188.203125 177.019531 "/></g><path style=" stroke:none;fill-rule:nonzero;fill:#02635a;fill-opacity:1;" d="M 187.75 146.207031 C 196.878906 146.390625 205.3125 149.433594 212.175781 154.507812 C 214.9375 156.542969 217.4375 158.902344 219.628906 161.53125 C 221.753906 164.078125 223.585938 166.878906 225.082031 169.875 C 226.195312 172.113281 227.109375 174.460938 227.820312 176.90625 C 228.601562 179.585938 229.125 182.378906 229.363281 185.246094 C 229.460938 186.417969 229.519531 187.597656 229.519531 188.792969 C 229.519531 188.851562 229.515625 188.910156 229.507812 188.96875 C 229.515625 189.035156 229.519531 189.085938 229.519531 189.152344 C 229.519531 190.34375 229.460938 191.519531 229.363281 192.691406 C 229.125 195.566406 228.601562 198.351562 227.820312 201.035156 C 227.109375 203.476562 226.195312 205.828125 225.082031 208.0625 C 223.585938 211.066406 221.753906 213.859375 219.628906 216.410156 C 217.4375 219.039062 214.9375 221.398438 212.175781 223.4375 C 205.3125 228.511719 196.878906 231.550781 187.75 231.734375 L 187.75 231.78125 L 67.796875 231.78125 C 68.648438 234.160156 69.5625 236.503906 70.546875 238.808594 L 187.300781 238.808594 L 187.300781 238.726562 C 196.378906 238.652344 204.886719 236.132812 212.1875 231.78125 C 216.054688 229.480469 219.578125 226.667969 222.671875 223.4375 C 224.75 221.269531 226.636719 218.921875 228.296875 216.410156 C 230.023438 213.792969 231.515625 211 232.730469 208.0625 C 233.667969 205.800781 234.445312 203.453125 235.042969 201.035156 C 235.710938 198.335938 236.144531 195.546875 236.351562 192.691406 C 236.4375 191.519531 236.488281 190.34375 236.488281 189.152344 C 236.488281 189.085938 236.484375 189.035156 236.484375 188.96875 C 236.484375 188.910156 236.488281 188.851562 236.488281 188.792969 C 236.488281 187.601562 236.4375 186.417969 236.351562 185.246094 C 236.144531 182.394531 235.710938 179.605469 235.042969 176.90625 C 234.445312 174.488281 233.667969 172.136719 232.730469 169.875 C 231.515625 166.945312 230.023438 164.152344 228.296875 161.53125 C 226.636719 159.019531 224.75 156.667969 222.671875 154.507812 C 219.578125 151.273438 216.054688 148.457031 212.1875 146.160156 C 204.886719 141.8125 196.378906 139.289062 187.300781 139.21875 L 187.300781 139.128906 L 70.546875 139.128906 C 69.5625 141.441406 68.648438 143.785156 67.796875 146.160156 L 187.75 146.160156 L 187.75 146.207031 "/><path style=" stroke:none;fill-rule:nonzero;fill:#02635a;fill-opacity:1;" d="M 187.75 161.582031 C 195.089844 161.8125 201.703125 164.9375 206.46875 169.875 C 208.460938 171.933594 210.113281 174.304688 211.378906 176.90625 C 212.640625 179.488281 213.503906 182.289062 213.890625 185.246094 C 214.042969 186.410156 214.152344 187.585938 214.152344 188.792969 C 214.152344 188.851562 214.148438 188.910156 214.148438 188.96875 C 214.148438 189.035156 214.152344 189.085938 214.152344 189.152344 C 214.152344 190.351562 214.042969 191.53125 213.890625 192.691406 C 213.503906 195.648438 212.640625 198.457031 211.378906 201.035156 C 210.113281 203.632812 208.460938 206.007812 206.46875 208.0625 C 201.703125 213.003906 195.089844 216.125 187.75 216.355469 L 187.75 216.410156 L 63.390625 216.410156 C 63.910156 218.78125 64.503906 221.121094 65.152344 223.4375 L 186.855469 223.4375 L 186.855469 223.371094 C 186.863281 223.371094 186.878906 223.371094 186.894531 223.371094 C 194.632812 223.371094 201.761719 220.757812 207.5 216.410156 C 210.570312 214.085938 213.253906 211.277344 215.390625 208.0625 C 216.84375 205.886719 218.023438 203.527344 218.949219 201.035156 C 219.933594 198.386719 220.636719 195.601562 220.933594 192.691406 C 221.058594 191.53125 221.121094 190.34375 221.121094 189.152344 C 221.121094 189.085938 221.113281 189.035156 221.113281 188.96875 C 221.113281 188.910156 221.121094 188.851562 221.121094 188.792969 C 221.121094 187.597656 221.058594 186.414062 220.933594 185.246094 C 220.636719 182.339844 219.933594 179.554688 218.949219 176.90625 C 218.023438 174.417969 216.84375 172.054688 215.390625 169.875 C 213.253906 166.664062 210.570312 163.859375 207.5 161.53125 C 201.761719 157.183594 194.632812 154.570312 186.894531 154.570312 C 186.878906 154.570312 186.863281 154.574219 186.855469 154.574219 L 186.855469 154.507812 L 65.152344 154.507812 C 64.503906 156.820312 63.910156 159.160156 63.390625 161.53125 L 187.75 161.53125 L 187.75 161.582031 "/><path style=" stroke:none;fill-rule:nonzero;fill:#02635a;fill-opacity:1;" d="M 187.75 130.832031 C 198.363281 130.988281 208.300781 133.992188 216.804688 139.128906 C 220.160156 141.15625 223.289062 143.515625 226.15625 146.160156 C 228.90625 148.695312 231.40625 151.484375 233.628906 154.507812 C 235.269531 156.734375 236.75 159.078125 238.0625 161.53125 C 239.492188 164.199219 240.703125 166.988281 241.707031 169.875 C 242.5 172.15625 243.160156 174.5 243.660156 176.90625 C 244.230469 179.621094 244.601562 182.40625 244.773438 185.246094 C 244.84375 186.417969 244.890625 187.601562 244.890625 188.792969 C 244.890625 188.851562 244.886719 188.910156 244.886719 188.96875 C 244.886719 189.027344 244.890625 189.085938 244.890625 189.152344 C 244.890625 190.339844 244.84375 191.519531 244.773438 192.691406 C 244.601562 195.53125 244.230469 198.316406 243.660156 201.035156 C 243.160156 203.4375 242.5 205.78125 241.707031 208.0625 C 240.703125 210.957031 239.492188 213.746094 238.0625 216.410156 C 236.75 218.863281 235.269531 221.210938 233.628906 223.4375 C 231.40625 226.457031 228.90625 229.25 226.15625 231.78125 C 223.289062 234.425781 220.160156 236.785156 216.804688 238.808594 C 208.300781 243.953125 198.363281 246.953125 187.75 247.109375 L 187.75 247.15625 L 74.511719 247.15625 C 75.742188 249.539062 77.03125 251.890625 78.410156 254.179688 L 186.402344 254.179688 L 186.402344 254.09375 C 186.570312 254.09375 186.726562 254.105469 186.894531 254.105469 C 197.386719 254.105469 207.300781 251.589844 216.085938 247.15625 C 220.621094 244.863281 224.855469 242.0625 228.710938 238.808594 C 231.269531 236.65625 233.648438 234.300781 235.847656 231.78125 C 238.121094 229.175781 240.199219 226.386719 242.039062 223.4375 C 243.445312 221.183594 244.714844 218.839844 245.84375 216.410156 C 247.089844 213.722656 248.167969 210.9375 249.042969 208.0625 C 249.742188 205.773438 250.308594 203.429688 250.753906 201.035156 C 251.257812 198.308594 251.605469 195.527344 251.757812 192.691406 C 251.828125 191.519531 251.863281 190.339844 251.863281 189.152344 C 251.863281 189.085938 251.859375 189.027344 251.859375 188.96875 C 251.859375 188.910156 251.863281 188.851562 251.863281 188.792969 C 251.863281 187.601562 251.828125 186.425781 251.757812 185.246094 C 251.605469 182.414062 251.257812 179.632812 250.753906 176.90625 C 250.308594 174.515625 249.742188 172.167969 249.042969 169.875 C 248.167969 167.003906 247.089844 164.222656 245.84375 161.53125 C 244.714844 159.101562 243.445312 156.757812 242.039062 154.507812 C 240.199219 151.554688 238.121094 148.769531 235.847656 146.160156 C 233.648438 143.636719 231.269531 141.289062 228.710938 139.128906 C 224.855469 135.882812 220.621094 133.078125 216.085938 130.78125 C 207.300781 126.347656 197.386719 123.832031 186.894531 123.832031 C 186.726562 123.832031 186.570312 123.847656 186.402344 123.847656 L 186.402344 123.757812 L 78.410156 123.757812 C 77.03125 126.050781 75.742188 128.398438 74.511719 130.78125 L 187.75 130.78125 L 187.75 130.832031 "/><path style=" stroke:none;fill-rule:nonzero;fill:#02635a;fill-opacity:1;" d="M 187.75 84.71875 C 201.894531 84.835938 215.371094 87.769531 227.644531 93.011719 C 232.359375 95.023438 236.898438 97.378906 241.226562 100.042969 C 245.324219 102.558594 249.238281 105.34375 252.9375 108.382812 C 255.625 110.601562 258.199219 112.945312 260.65625 115.414062 C 263.285156 118.054688 265.757812 120.847656 268.097656 123.757812 C 269.917969 126.03125 271.664062 128.363281 273.296875 130.78125 C 275.113281 133.480469 276.804688 136.265625 278.371094 139.128906 C 279.617188 141.421875 280.753906 143.769531 281.832031 146.160156 C 283.0625 148.878906 284.175781 151.660156 285.171875 154.507812 C 285.976562 156.8125 286.707031 159.152344 287.355469 161.53125 C 288.101562 164.269531 288.726562 167.050781 289.25 169.875 C 289.675781 172.195312 290.035156 174.535156 290.304688 176.90625 C 290.617188 179.65625 290.820312 182.4375 290.914062 185.246094 C 290.953125 186.429688 291 187.601562 291 188.792969 C 291 188.851562 290.996094 188.910156 290.996094 188.96875 C 290.996094 189.027344 291 189.085938 291 189.152344 C 291 190.339844 290.953125 191.515625 290.914062 192.691406 C 290.820312 195.503906 290.617188 198.289062 290.304688 201.035156 C 290.035156 203.402344 289.675781 205.75 289.25 208.0625 C 288.726562 210.886719 288.101562 213.675781 287.355469 216.410156 C 286.707031 218.789062 285.976562 221.132812 285.171875 223.4375 C 284.175781 226.277344 283.0625 229.058594 281.832031 231.78125 C 280.753906 234.171875 279.617188 236.523438 278.371094 238.808594 C 276.804688 241.679688 275.113281 244.460938 273.296875 247.15625 C 271.664062 249.574219 269.917969 251.910156 268.097656 254.179688 C 265.757812 257.09375 263.285156 259.882812 260.65625 262.527344 C 258.199219 264.996094 255.625 267.34375 252.9375 269.554688 C 249.238281 272.597656 245.324219 275.386719 241.226562 277.902344 C 236.898438 280.5625 232.359375 282.914062 227.644531 284.933594 C 215.371094 290.167969 201.894531 293.101562 187.75 293.21875 L 187.75 293.273438 L 115.132812 293.273438 C 118.796875 295.804688 122.585938 298.164062 126.515625 300.300781 L 186.402344 300.300781 L 186.402344 300.199219 C 186.394531 300.199219 186.382812 300.199219 186.375 300.199219 C 186.550781 300.199219 186.71875 300.214844 186.894531 300.214844 C 200.476562 300.214844 213.484375 297.753906 225.527344 293.273438 C 231.632812 291 237.476562 288.191406 243.027344 284.933594 C 246.683594 282.777344 250.214844 280.445312 253.589844 277.902344 C 257.027344 275.3125 260.289062 272.511719 263.398438 269.554688 C 265.757812 267.316406 268.019531 264.96875 270.171875 262.527344 C 272.53125 259.855469 274.757812 257.074219 276.855469 254.179688 C 278.511719 251.898438 280.089844 249.566406 281.574219 247.15625 C 283.242188 244.449219 284.777344 241.660156 286.207031 238.808594 C 287.359375 236.507812 288.449219 234.171875 289.449219 231.78125 C 290.589844 229.054688 291.609375 226.269531 292.53125 223.4375 C 293.28125 221.125 293.976562 218.785156 294.578125 216.410156 C 295.273438 213.667969 295.84375 210.878906 296.328125 208.0625 C 296.730469 205.742188 297.078125 203.402344 297.328125 201.035156 C 297.621094 198.285156 297.792969 195.496094 297.882812 192.691406 C 297.921875 191.511719 297.976562 190.339844 297.976562 189.152344 C 297.976562 189.085938 297.972656 189.027344 297.972656 188.96875 C 297.972656 188.910156 297.976562 188.851562 297.976562 188.792969 C 297.976562 187.601562 297.921875 186.429688 297.882812 185.246094 C 297.792969 182.441406 297.621094 179.65625 297.328125 176.90625 C 297.078125 174.535156 296.730469 172.195312 296.328125 169.875 C 295.84375 167.0625 295.273438 164.269531 294.578125 161.53125 C 293.976562 159.15625 293.28125 156.816406 292.53125 154.507812 C 291.609375 151.671875 290.589844 148.886719 289.449219 146.160156 C 288.449219 143.769531 287.359375 141.429688 286.207031 139.128906 C 284.777344 136.28125 283.242188 133.488281 281.574219 130.78125 C 280.089844 128.375 278.511719 126.039062 276.855469 123.757812 C 274.757812 120.867188 272.53125 118.085938 270.171875 115.414062 C 268.019531 112.96875 265.757812 110.628906 263.398438 108.382812 C 260.289062 105.425781 257.027344 102.625 253.589844 100.042969 C 250.214844 97.496094 246.683594 95.160156 243.027344 93.011719 C 237.476562 89.746094 231.632812 86.941406 225.527344 84.664062 C 213.484375 80.1875 200.476562 77.730469 186.894531 77.730469 C 186.71875 77.730469 186.550781 77.742188 186.375 77.742188 C 186.382812 77.742188 186.394531 77.742188 186.402344 77.742188 L 186.402344 77.636719 L 126.515625 77.636719 C 122.585938 79.777344 118.796875 82.136719 115.132812 84.664062 L 187.75 84.664062 L 187.75 84.71875 "/><g clip-rule="nonzero" clip-path="url(#486408b1ff)"><path style=" stroke:none;fill-rule:nonzero;fill:#02635a;fill-opacity:1;" d="M 187.75 69.355469 C 202.859375 69.460938 217.296875 72.398438 230.589844 77.636719 C 235.691406 79.652344 240.625 81.996094 245.359375 84.664062 C 249.828125 87.1875 254.128906 89.957031 258.21875 93.011719 C 261.183594 95.21875 264.03125 97.570312 266.769531 100.042969 C 269.707031 102.683594 272.519531 105.464844 275.175781 108.382812 C 277.238281 110.644531 279.1875 113 281.074219 115.414062 C 283.175781 118.105469 285.167969 120.886719 287.039062 123.757812 C 288.535156 126.050781 289.957031 128.390625 291.296875 130.78125 C 292.8125 133.503906 294.214844 136.289062 295.519531 139.128906 C 296.574219 141.433594 297.5625 143.78125 298.476562 146.160156 C 299.53125 148.894531 300.480469 151.675781 301.332031 154.507812 C 302.027344 156.816406 302.640625 159.160156 303.195312 161.53125 C 303.84375 164.28125 304.410156 167.058594 304.863281 169.875 C 305.230469 172.195312 305.542969 174.539062 305.78125 176.90625 C 306.050781 179.65625 306.203125 182.445312 306.285156 185.246094 C 306.320312 186.429688 306.375 187.601562 306.375 188.792969 C 306.375 188.851562 306.367188 188.910156 306.367188 188.96875 C 306.367188 189.027344 306.375 189.085938 306.375 189.152344 C 306.375 190.339844 306.320312 191.511719 306.285156 192.691406 C 306.203125 195.496094 306.050781 198.285156 305.78125 201.035156 C 305.542969 203.398438 305.230469 205.742188 304.863281 208.0625 C 304.410156 210.882812 303.84375 213.660156 303.195312 216.410156 C 302.640625 218.78125 302.027344 221.125 301.332031 223.4375 C 300.480469 226.265625 299.53125 229.042969 298.476562 231.78125 C 297.5625 234.164062 296.574219 236.503906 295.519531 238.808594 C 294.214844 241.65625 292.8125 244.441406 291.296875 247.15625 C 289.957031 249.550781 288.535156 251.890625 287.039062 254.179688 C 285.167969 257.054688 283.175781 259.835938 281.074219 262.527344 C 279.1875 264.941406 277.238281 267.296875 275.175781 269.554688 C 272.519531 272.472656 269.707031 275.261719 266.769531 277.902344 C 264.03125 280.371094 261.183594 282.71875 258.21875 284.933594 C 254.128906 287.980469 249.828125 290.757812 245.359375 293.273438 C 240.625 295.941406 235.691406 298.292969 230.589844 300.300781 C 217.296875 305.546875 202.859375 308.484375 187.75 308.589844 L 187.75 308.648438 L 145.488281 308.648438 C 158.464844 313.140625 172.390625 315.621094 186.898438 315.621094 C 201.402344 315.621094 215.324219 313.140625 228.304688 308.648438 L 228.113281 308.648438 C 234.703125 306.371094 241.066406 303.589844 247.109375 300.300781 L 247.277344 300.300781 C 251.203125 298.164062 254.996094 295.804688 258.660156 293.273438 L 258.507812 293.273438 C 262.257812 290.691406 265.851562 287.894531 269.296875 284.933594 L 269.441406 284.933594 C 272.042969 282.683594 274.5625 280.351562 276.976562 277.902344 L 276.84375 277.902344 C 279.484375 275.230469 282.015625 272.453125 284.402344 269.554688 L 284.527344 269.554688 C 286.398438 267.285156 288.164062 264.925781 289.882812 262.527344 L 289.769531 262.527344 C 291.707031 259.820312 293.5625 257.042969 295.28125 254.179688 L 295.382812 254.179688 C 296.757812 251.890625 298.042969 249.539062 299.28125 247.15625 L 299.191406 247.15625 C 300.609375 244.425781 301.949219 241.648438 303.164062 238.808594 L 303.242188 238.808594 C 304.230469 236.503906 305.140625 234.160156 305.992188 231.78125 L 305.925781 231.78125 C 306.914062 229.042969 307.785156 226.257812 308.582031 223.4375 L 308.632812 223.4375 C 309.285156 221.121094 309.878906 218.78125 310.402344 216.410156 L 310.351562 216.410156 C 310.960938 213.660156 311.5 210.878906 311.925781 208.0625 L 311.964844 208.0625 C 312.3125 205.742188 312.589844 203.398438 312.808594 201.035156 L 312.769531 201.035156 C 313.023438 198.277344 313.175781 195.496094 313.253906 192.691406 L 313.289062 192.691406 C 313.324219 191.511719 313.378906 190.339844 313.378906 189.152344 C 313.378906 189.085938 313.378906 189.027344 313.378906 188.96875 C 313.378906 188.910156 313.378906 188.851562 313.378906 188.792969 C 313.378906 187.601562 313.324219 186.429688 313.289062 185.246094 L 313.253906 185.246094 C 313.175781 182.445312 313.023438 179.660156 312.769531 176.90625 L 312.808594 176.90625 C 312.589844 174.546875 312.3125 172.195312 311.964844 169.875 L 311.925781 169.875 C 311.5 167.0625 310.960938 164.285156 310.351562 161.53125 L 310.402344 161.53125 C 309.878906 159.160156 309.285156 156.820312 308.632812 154.507812 L 308.582031 154.507812 C 307.785156 151.679688 306.914062 148.894531 305.925781 146.160156 L 305.992188 146.160156 C 305.140625 143.785156 304.230469 141.441406 303.242188 139.128906 L 303.164062 139.128906 C 301.949219 136.289062 300.609375 133.515625 299.191406 130.78125 L 299.28125 130.78125 C 298.042969 128.398438 296.757812 126.050781 295.382812 123.757812 L 295.28125 123.757812 C 293.5625 120.894531 291.707031 118.121094 289.769531 115.414062 L 289.882812 115.414062 C 288.164062 113.015625 286.398438 110.65625 284.527344 108.382812 L 284.402344 108.382812 C 282.015625 105.492188 279.484375 102.710938 276.84375 100.042969 L 276.976562 100.042969 C 274.5625 97.59375 272.042969 95.257812 269.441406 93.011719 L 269.296875 93.011719 C 265.851562 90.046875 262.257812 87.253906 258.507812 84.664062 L 258.660156 84.664062 C 254.996094 82.136719 251.203125 79.777344 247.277344 77.636719 L 247.109375 77.636719 C 241.066406 74.351562 234.703125 71.574219 228.113281 69.296875 L 228.304688 69.296875 C 215.324219 64.796875 201.402344 62.324219 186.898438 62.324219 C 172.390625 62.324219 158.464844 64.796875 145.488281 69.296875 L 187.75 69.296875 L 187.75 69.355469 "/></g><path style=" stroke:none;fill-rule:nonzero;fill:#02635a;fill-opacity:1;" d="M 187.75 100.089844 C 200.8125 100.21875 213.210938 103.175781 224.347656 108.382812 C 228.671875 110.40625 232.804688 112.75 236.714844 115.414062 C 240.414062 117.933594 243.902344 120.730469 247.171875 123.757812 C 249.5625 125.972656 251.824219 128.320312 253.957031 130.78125 C 256.257812 133.441406 258.414062 136.21875 260.390625 139.128906 C 261.933594 141.402344 263.363281 143.746094 264.6875 146.160156 C 266.175781 148.859375 267.53125 151.640625 268.730469 154.507812 C 269.699219 156.796875 270.554688 159.144531 271.324219 161.53125 C 272.214844 164.257812 272.964844 167.042969 273.582031 169.875 C 274.082031 172.1875 274.496094 174.53125 274.8125 176.90625 C 275.179688 179.648438 275.433594 182.433594 275.539062 185.246094 C 275.589844 186.425781 275.632812 187.601562 275.632812 188.792969 C 275.632812 188.851562 275.628906 188.910156 275.628906 188.96875 C 275.628906 189.027344 275.632812 189.085938 275.632812 189.152344 C 275.632812 190.339844 275.589844 191.515625 275.539062 192.691406 C 275.433594 195.511719 275.179688 198.292969 274.8125 201.035156 C 274.496094 203.410156 274.082031 205.753906 273.582031 208.0625 C 272.964844 210.898438 272.214844 213.683594 271.324219 216.410156 C 270.554688 218.792969 269.699219 221.144531 268.730469 223.4375 C 267.53125 226.296875 266.175781 229.085938 264.6875 231.78125 C 263.363281 234.195312 261.933594 236.539062 260.390625 238.808594 C 258.414062 241.726562 256.257812 244.5 253.957031 247.15625 C 251.824219 249.621094 249.5625 251.96875 247.171875 254.179688 C 243.902344 257.214844 240.414062 260.011719 236.714844 262.527344 C 232.804688 265.191406 228.671875 267.535156 224.347656 269.554688 C 213.210938 274.765625 200.8125 277.726562 187.75 277.851562 L 187.75 277.902344 L 96.816406 277.902344 C 99.226562 280.351562 101.75 282.683594 104.347656 284.933594 L 186.855469 284.933594 L 186.855469 284.84375 C 186.742188 284.84375 186.628906 284.832031 186.515625 284.832031 C 186.644531 284.832031 186.765625 284.84375 186.894531 284.84375 C 199.519531 284.84375 211.570312 282.363281 222.621094 277.902344 C 228.261719 275.621094 233.632812 272.824219 238.691406 269.554688 C 242.019531 267.402344 245.210938 265.0625 248.242188 262.527344 C 251.34375 259.933594 254.269531 257.144531 257.019531 254.179688 C 259.101562 251.9375 261.085938 249.59375 262.949219 247.15625 C 264.992188 244.480469 266.917969 241.699219 268.675781 238.808594 C 270.066406 236.535156 271.34375 234.179688 272.542969 231.78125 C 273.902344 229.070312 275.128906 226.289062 276.226562 223.4375 C 277.109375 221.132812 277.914062 218.792969 278.625 216.410156 C 279.4375 213.675781 280.144531 210.898438 280.714844 208.0625 C 281.179688 205.753906 281.542969 203.402344 281.835938 201.035156 C 282.179688 198.289062 282.410156 195.507812 282.515625 192.691406 C 282.558594 191.515625 282.601562 190.339844 282.601562 189.152344 C 282.601562 189.085938 282.597656 189.027344 282.597656 188.96875 C 282.597656 188.910156 282.601562 188.851562 282.601562 188.792969 C 282.601562 187.601562 282.558594 186.429688 282.515625 185.246094 C 282.410156 182.433594 282.179688 179.652344 281.835938 176.90625 C 281.542969 174.535156 281.179688 172.1875 280.714844 169.875 C 280.144531 167.046875 279.4375 164.265625 278.625 161.53125 C 277.914062 159.144531 277.109375 156.804688 276.226562 154.507812 C 275.128906 151.652344 273.902344 148.871094 272.542969 146.160156 C 271.34375 143.761719 270.066406 141.410156 268.675781 139.128906 C 266.917969 136.242188 264.992188 133.464844 262.949219 130.78125 C 261.085938 128.34375 259.101562 126.007812 257.019531 123.757812 C 254.269531 120.796875 251.34375 118.007812 248.242188 115.414062 C 245.210938 112.875 242.019531 110.535156 238.691406 108.382812 C 233.632812 105.121094 228.261719 102.316406 222.621094 100.042969 C 211.570312 95.578125 199.519531 93.097656 186.894531 93.097656 C 186.765625 93.097656 186.644531 93.105469 186.515625 93.105469 C 186.628906 93.105469 186.742188 93.097656 186.855469 93.097656 L 186.855469 93.011719 L 104.347656 93.011719 C 101.75 95.257812 99.226562 97.59375 96.816406 100.042969 L 187.75 100.042969 L 187.75 100.089844 "/><path style=" stroke:none;fill-rule:nonzero;fill:#02635a;fill-opacity:1;" d="M 187.75 115.460938 C 199.648438 115.601562 210.871094 118.582031 220.773438 123.757812 C 224.640625 125.78125 228.304688 128.132812 231.726562 130.78125 C 234.988281 133.3125 238.039062 136.097656 240.832031 139.128906 C 242.875 141.351562 244.777344 143.703125 246.539062 146.160156 C 248.449219 148.816406 250.183594 151.597656 251.726562 154.507812 C 252.933594 156.777344 254.019531 159.121094 254.988281 161.53125 C 256.074219 164.238281 257.011719 167.023438 257.777344 169.875 C 258.390625 172.175781 258.890625 174.519531 259.285156 176.90625 C 259.730469 179.636719 260.039062 182.421875 260.171875 185.246094 C 260.226562 186.425781 260.265625 187.601562 260.265625 188.792969 C 260.265625 188.851562 260.253906 188.910156 260.253906 188.96875 C 260.253906 189.027344 260.265625 189.085938 260.265625 189.152344 C 260.265625 190.339844 260.226562 191.519531 260.171875 192.691406 C 260.039062 195.519531 259.730469 198.304688 259.285156 201.035156 C 258.890625 203.417969 258.390625 205.761719 257.777344 208.0625 C 257.011719 210.917969 256.074219 213.703125 254.988281 216.410156 C 254.019531 218.820312 252.933594 221.164062 251.726562 223.4375 C 250.183594 226.34375 248.449219 229.128906 246.539062 231.78125 C 244.777344 234.238281 242.875 236.59375 240.832031 238.808594 C 238.039062 241.839844 234.988281 244.625 231.726562 247.15625 C 228.304688 249.8125 224.640625 252.160156 220.773438 254.179688 C 210.871094 259.359375 199.648438 262.339844 187.75 262.480469 L 187.75 262.527344 L 83.910156 262.527344 C 85.625 264.925781 87.390625 267.285156 89.261719 269.554688 L 186.855469 269.554688 L 186.855469 269.476562 C 186.839844 269.476562 186.824219 269.472656 186.808594 269.472656 C 186.839844 269.472656 186.863281 269.476562 186.894531 269.476562 C 198.503906 269.476562 209.539062 266.980469 219.511719 262.527344 C 224.632812 260.242188 229.476562 257.441406 233.96875 254.179688 C 236.929688 252.03125 239.742188 249.683594 242.378906 247.15625 C 245.097656 244.554688 247.632812 241.765625 249.96875 238.808594 C 251.746094 236.558594 253.402344 234.21875 254.933594 231.78125 C 256.621094 229.105469 258.160156 226.316406 259.527344 223.4375 C 260.609375 221.152344 261.59375 218.808594 262.460938 216.410156 C 263.445312 213.695312 264.273438 210.90625 264.964844 208.0625 C 265.523438 205.757812 265.992188 203.417969 266.347656 201.035156 C 266.753906 198.296875 267.019531 195.511719 267.140625 192.691406 C 267.191406 191.515625 267.230469 190.339844 267.230469 189.152344 C 267.230469 189.085938 267.230469 189.027344 267.230469 188.96875 C 267.230469 188.910156 267.230469 188.851562 267.230469 188.792969 C 267.230469 187.601562 267.191406 186.425781 267.140625 185.246094 C 267.019531 182.425781 266.753906 179.640625 266.347656 176.90625 C 265.992188 174.527344 265.523438 172.183594 264.964844 169.875 C 264.273438 167.03125 263.445312 164.246094 262.460938 161.53125 C 261.59375 159.132812 260.609375 156.792969 259.527344 154.507812 C 258.160156 151.621094 256.621094 148.839844 254.933594 146.160156 C 253.402344 143.726562 251.746094 141.382812 249.96875 139.128906 C 247.632812 136.171875 245.097656 133.386719 242.378906 130.78125 C 239.742188 128.257812 236.929688 125.90625 233.96875 123.757812 C 229.476562 120.5 224.632812 117.699219 219.511719 115.414062 C 209.539062 110.957031 198.503906 108.46875 186.894531 108.46875 C 186.863281 108.46875 186.839844 108.46875 186.808594 108.46875 C 186.824219 108.46875 186.839844 108.46875 186.855469 108.46875 L 186.855469 108.382812 L 89.261719 108.382812 C 87.390625 110.65625 85.625 113.015625 83.910156 115.414062 L 187.75 115.414062 L 187.75 115.460938 "/><g clip-rule="nonzero" clip-path="url(#9e5ad8ec9d)"><path style=" stroke:none;fill-rule:nonzero;fill:#02635a;fill-opacity:1;" d="M 186.234375 192.488281 L 186.234375 185.457031 L 60.984375 185.457031 L 60.984375 192.488281 L 186.234375 192.488281 "/></g></g></svg>